<mxfile host="www.draw.io" modified="2019-11-14T08:03:55.128Z" agent="Mozilla/5.0 (Macintosh; Intel Mac OS X 10_14_3) AppleWebKit/537.36 (KHTML, like Gecko) Chrome/78.0.3904.97 Safari/537.36" etag="NrPDV5NyENERbTJiEwjx" version="12.2.6" type="github" pages="1">
  <diagram id="SeOWtzrajrHzy1SdkR8R" name="Page-1">
    <mxGraphModel dx="1426" dy="793" grid="0" gridSize="10" guides="1" tooltips="1" connect="1" arrows="1" fold="1" page="1" pageScale="1" pageWidth="3300" pageHeight="2339" math="0" shadow="0">
      <root>
        <mxCell id="0"/>
        <mxCell id="1" parent="0"/>
        <mxCell id="xB0mq0CovWPzEumE7J6I-3" style="edgeStyle=orthogonalEdgeStyle;rounded=0;orthogonalLoop=1;jettySize=auto;html=1;entryX=0.5;entryY=0;entryDx=0;entryDy=0;strokeColor=#FFB570;" parent="1" source="xB0mq0CovWPzEumE7J6I-1" target="xB0mq0CovWPzEumE7J6I-2" edge="1">
          <mxGeometry relative="1" as="geometry"/>
        </mxCell>
        <mxCell id="xB0mq0CovWPzEumE7J6I-1" value="goarticle" style="rounded=1;whiteSpace=wrap;html=1;" parent="1" vertex="1">
          <mxGeometry x="200" y="80" width="120" height="40" as="geometry"/>
        </mxCell>
        <mxCell id="xB0mq0CovWPzEumE7J6I-5" style="edgeStyle=orthogonalEdgeStyle;rounded=0;orthogonalLoop=1;jettySize=auto;html=1;entryX=0;entryY=0.5;entryDx=0;entryDy=0;strokeColor=#FFB570;" parent="1" source="xB0mq0CovWPzEumE7J6I-2" target="xB0mq0CovWPzEumE7J6I-4" edge="1">
          <mxGeometry relative="1" as="geometry"/>
        </mxCell>
        <mxCell id="xB0mq0CovWPzEumE7J6I-2" value="core_article" style="rounded=1;whiteSpace=wrap;html=1;" parent="1" vertex="1">
          <mxGeometry x="200" y="160" width="120" height="40" as="geometry"/>
        </mxCell>
        <mxCell id="xB0mq0CovWPzEumE7J6I-9" style="edgeStyle=orthogonalEdgeStyle;rounded=0;orthogonalLoop=1;jettySize=auto;html=1;entryX=0;entryY=0.5;entryDx=0;entryDy=0;strokeColor=#FFB570;" parent="1" source="xB0mq0CovWPzEumE7J6I-4" target="xB0mq0CovWPzEumE7J6I-8" edge="1">
          <mxGeometry relative="1" as="geometry"/>
        </mxCell>
        <mxCell id="xB0mq0CovWPzEumE7J6I-4" value="pipeline&lt;br&gt;review" style="rounded=1;whiteSpace=wrap;html=1;" parent="1" vertex="1">
          <mxGeometry x="400" y="140" width="120" height="80" as="geometry"/>
        </mxCell>
        <mxCell id="xB0mq0CovWPzEumE7J6I-8" value="commit" style="rounded=1;whiteSpace=wrap;html=1;" parent="1" vertex="1">
          <mxGeometry x="640" y="160" width="120" height="40" as="geometry"/>
        </mxCell>
        <mxCell id="xB0mq0CovWPzEumE7J6I-12" value="发布" style="text;html=1;resizable=0;points=[];autosize=1;align=left;verticalAlign=top;spacingTop=-4;fillColor=#FFCE9F;" parent="1" vertex="1">
          <mxGeometry x="260" y="130" width="40" height="20" as="geometry"/>
        </mxCell>
        <mxCell id="xB0mq0CovWPzEumE7J6I-17" value="item_status=45&lt;br&gt;vl=10/15" style="text;html=1;resizable=0;points=[];autosize=1;align=left;verticalAlign=top;spacingTop=-4;fillColor=#FFCE9F;" parent="1" vertex="1">
          <mxGeometry x="530" y="150" width="100" height="30" as="geometry"/>
        </mxCell>
        <mxCell id="xB0mq0CovWPzEumE7J6I-22" style="edgeStyle=orthogonalEdgeStyle;rounded=0;orthogonalLoop=1;jettySize=auto;html=1;entryX=0.5;entryY=0;entryDx=0;entryDy=0;strokeColor=#FFCE9F;" parent="1" source="xB0mq0CovWPzEumE7J6I-19" target="xB0mq0CovWPzEumE7J6I-20" edge="1">
          <mxGeometry relative="1" as="geometry"/>
        </mxCell>
        <mxCell id="xB0mq0CovWPzEumE7J6I-24" style="edgeStyle=orthogonalEdgeStyle;rounded=0;orthogonalLoop=1;jettySize=auto;html=1;entryX=0;entryY=0.5;entryDx=0;entryDy=0;strokeColor=#FFCE9F;" parent="1" source="xB0mq0CovWPzEumE7J6I-19" target="xB0mq0CovWPzEumE7J6I-23" edge="1">
          <mxGeometry relative="1" as="geometry"/>
        </mxCell>
        <mxCell id="xB0mq0CovWPzEumE7J6I-19" value="timer_publish" style="rounded=1;whiteSpace=wrap;html=1;fillColor=none;" parent="1" vertex="1">
          <mxGeometry x="200" y="640" width="120" height="40" as="geometry"/>
        </mxCell>
        <mxCell id="xB0mq0CovWPzEumE7J6I-20" value="core_article" style="rounded=1;whiteSpace=wrap;html=1;fillColor=none;" parent="1" vertex="1">
          <mxGeometry x="200" y="760" width="120" height="40" as="geometry"/>
        </mxCell>
        <mxCell id="xB0mq0CovWPzEumE7J6I-21" value="&lt;span style=&quot;text-align: center ; white-space: normal&quot;&gt;修改timer_publish&lt;br&gt;status/actul_publish_time&lt;/span&gt;" style="text;html=1;resizable=0;points=[];autosize=1;align=left;verticalAlign=top;spacingTop=-4;strokeColor=#F8CECC;fillColor=#FFCE9F;" parent="1" vertex="1">
          <mxGeometry x="110" y="705" width="150" height="30" as="geometry"/>
        </mxCell>
        <mxCell id="xB0mq0CovWPzEumE7J6I-26" style="edgeStyle=orthogonalEdgeStyle;rounded=0;orthogonalLoop=1;jettySize=auto;html=1;entryX=0;entryY=0.5;entryDx=0;entryDy=0;strokeColor=#FFCE9F;" parent="1" source="xB0mq0CovWPzEumE7J6I-23" target="xB0mq0CovWPzEumE7J6I-25" edge="1">
          <mxGeometry relative="1" as="geometry"/>
        </mxCell>
        <mxCell id="xB0mq0CovWPzEumE7J6I-27" style="edgeStyle=orthogonalEdgeStyle;rounded=0;orthogonalLoop=1;jettySize=auto;html=1;entryX=1;entryY=0.5;entryDx=0;entryDy=0;strokeColor=#FFCE9F;exitX=0.5;exitY=1;exitDx=0;exitDy=0;" parent="1" source="xB0mq0CovWPzEumE7J6I-23" target="xB0mq0CovWPzEumE7J6I-20" edge="1">
          <mxGeometry relative="1" as="geometry"/>
        </mxCell>
        <mxCell id="xB0mq0CovWPzEumE7J6I-23" value="pipeline" style="rounded=1;whiteSpace=wrap;html=1;" parent="1" vertex="1">
          <mxGeometry x="400" y="640" width="120" height="40" as="geometry"/>
        </mxCell>
        <mxCell id="xB0mq0CovWPzEumE7J6I-25" value="commit" style="rounded=1;whiteSpace=wrap;html=1;" parent="1" vertex="1">
          <mxGeometry x="680" y="640" width="120" height="40" as="geometry"/>
        </mxCell>
        <mxCell id="xB0mq0CovWPzEumE7J6I-29" value="index_status=true_status" style="text;html=1;resizable=0;points=[];autosize=1;align=left;verticalAlign=top;spacingTop=-4;strokeColor=#F8CECC;fillColor=#FFCE9F;" parent="1" vertex="1">
          <mxGeometry x="310" y="700" width="150" height="20" as="geometry"/>
        </mxCell>
        <mxCell id="xB0mq0CovWPzEumE7J6I-35" style="edgeStyle=orthogonalEdgeStyle;rounded=0;orthogonalLoop=1;jettySize=auto;html=1;strokeColor=#FFCE9F;" parent="1" source="xB0mq0CovWPzEumE7J6I-30" target="xB0mq0CovWPzEumE7J6I-31" edge="1">
          <mxGeometry relative="1" as="geometry"/>
        </mxCell>
        <mxCell id="xB0mq0CovWPzEumE7J6I-37" style="edgeStyle=orthogonalEdgeStyle;rounded=0;orthogonalLoop=1;jettySize=auto;html=1;entryX=0;entryY=0.5;entryDx=0;entryDy=0;strokeColor=#FFCE9F;" parent="1" source="xB0mq0CovWPzEumE7J6I-30" target="xB0mq0CovWPzEumE7J6I-32" edge="1">
          <mxGeometry relative="1" as="geometry"/>
        </mxCell>
        <mxCell id="xB0mq0CovWPzEumE7J6I-78" style="edgeStyle=orthogonalEdgeStyle;rounded=0;orthogonalLoop=1;jettySize=auto;html=1;entryX=0;entryY=0.5;entryDx=0;entryDy=0;strokeColor=#9AC7BF;exitX=0.5;exitY=0;exitDx=0;exitDy=0;" parent="1" source="xB0mq0CovWPzEumE7J6I-30" target="xB0mq0CovWPzEumE7J6I-74" edge="1">
          <mxGeometry relative="1" as="geometry"/>
        </mxCell>
        <mxCell id="xB0mq0CovWPzEumE7J6I-81" value="enqueue" style="text;html=1;resizable=0;points=[];align=center;verticalAlign=middle;labelBackgroundColor=#ffffff;" parent="xB0mq0CovWPzEumE7J6I-78" vertex="1" connectable="0">
          <mxGeometry x="0.0429" y="4" relative="1" as="geometry">
            <mxPoint x="-15" y="35" as="offset"/>
          </mxGeometry>
        </mxCell>
        <mxCell id="xB0mq0CovWPzEumE7J6I-30" value="timer_publish" style="rounded=1;whiteSpace=wrap;html=1;fillColor=none;" parent="1" vertex="1">
          <mxGeometry x="1000" y="799" width="120" height="40" as="geometry"/>
        </mxCell>
        <mxCell id="xB0mq0CovWPzEumE7J6I-77" style="edgeStyle=orthogonalEdgeStyle;rounded=0;orthogonalLoop=1;jettySize=auto;html=1;entryX=0.5;entryY=1;entryDx=0;entryDy=0;strokeColor=#9AC7BF;exitX=0.5;exitY=1;exitDx=0;exitDy=0;" parent="1" source="xB0mq0CovWPzEumE7J6I-31" target="xB0mq0CovWPzEumE7J6I-34" edge="1">
          <mxGeometry relative="1" as="geometry">
            <Array as="points">
              <mxPoint x="1060" y="1019"/>
              <mxPoint x="1661" y="1019"/>
            </Array>
          </mxGeometry>
        </mxCell>
        <mxCell id="xB0mq0CovWPzEumE7J6I-31" value="core_article" style="rounded=1;whiteSpace=wrap;html=1;fillColor=none;" parent="1" vertex="1">
          <mxGeometry x="1000" y="919" width="120" height="40" as="geometry"/>
        </mxCell>
        <mxCell id="xB0mq0CovWPzEumE7J6I-38" style="edgeStyle=orthogonalEdgeStyle;rounded=0;orthogonalLoop=1;jettySize=auto;html=1;entryX=0;entryY=0.5;entryDx=0;entryDy=0;strokeColor=#FFCE9F;" parent="1" source="xB0mq0CovWPzEumE7J6I-32" target="xB0mq0CovWPzEumE7J6I-76" edge="1">
          <mxGeometry relative="1" as="geometry">
            <mxPoint x="1440" y="819" as="targetPoint"/>
          </mxGeometry>
        </mxCell>
        <mxCell id="xB0mq0CovWPzEumE7J6I-84" style="edgeStyle=orthogonalEdgeStyle;rounded=0;orthogonalLoop=1;jettySize=auto;html=1;entryX=0;entryY=0.5;entryDx=0;entryDy=0;strokeColor=#9AC7BF;exitX=0.75;exitY=1;exitDx=0;exitDy=0;" parent="1" source="xB0mq0CovWPzEumE7J6I-32" target="xB0mq0CovWPzEumE7J6I-75" edge="1">
          <mxGeometry relative="1" as="geometry">
            <Array as="points">
              <mxPoint x="1290" y="939"/>
            </Array>
          </mxGeometry>
        </mxCell>
        <mxCell id="xB0mq0CovWPzEumE7J6I-99" style="edgeStyle=orthogonalEdgeStyle;rounded=0;orthogonalLoop=1;jettySize=auto;html=1;entryX=1;entryY=0.5;entryDx=0;entryDy=0;strokeColor=#FFCE9F;exitX=0.5;exitY=1;exitDx=0;exitDy=0;" parent="1" source="xB0mq0CovWPzEumE7J6I-32" target="xB0mq0CovWPzEumE7J6I-31" edge="1">
          <mxGeometry relative="1" as="geometry">
            <Array as="points">
              <mxPoint x="1260" y="939"/>
            </Array>
          </mxGeometry>
        </mxCell>
        <mxCell id="xB0mq0CovWPzEumE7J6I-32" value="pipeline" style="rounded=1;whiteSpace=wrap;html=1;" parent="1" vertex="1">
          <mxGeometry x="1200" y="799" width="120" height="40" as="geometry"/>
        </mxCell>
        <mxCell id="xB0mq0CovWPzEumE7J6I-34" value="publish_item_gray" style="rounded=1;whiteSpace=wrap;html=1;" parent="1" vertex="1">
          <mxGeometry x="1601" y="919" width="120" height="40" as="geometry"/>
        </mxCell>
        <mxCell id="xB0mq0CovWPzEumE7J6I-36" value="&lt;span style=&quot;text-align: center ; white-space: normal&quot;&gt;修改timer_publish&lt;br&gt;status/actul_publish_time&lt;/span&gt;" style="text;html=1;resizable=0;points=[];autosize=1;align=left;verticalAlign=top;spacingTop=-4;strokeColor=#F8CECC;fillColor=#FFCE9F;" parent="1" vertex="1">
          <mxGeometry x="910" y="859" width="150" height="30" as="geometry"/>
        </mxCell>
        <mxCell id="xB0mq0CovWPzEumE7J6I-41" style="edgeStyle=orthogonalEdgeStyle;rounded=0;orthogonalLoop=1;jettySize=auto;html=1;entryX=0.5;entryY=0;entryDx=0;entryDy=0;strokeColor=#FFB570;" parent="1" source="xB0mq0CovWPzEumE7J6I-42" target="xB0mq0CovWPzEumE7J6I-44" edge="1">
          <mxGeometry relative="1" as="geometry"/>
        </mxCell>
        <mxCell id="xB0mq0CovWPzEumE7J6I-59" style="edgeStyle=orthogonalEdgeStyle;rounded=0;orthogonalLoop=1;jettySize=auto;html=1;entryX=0;entryY=0.5;entryDx=0;entryDy=0;strokeColor=#9AC7BF;" parent="1" source="xB0mq0CovWPzEumE7J6I-42" target="xB0mq0CovWPzEumE7J6I-58" edge="1">
          <mxGeometry relative="1" as="geometry"/>
        </mxCell>
        <mxCell id="xB0mq0CovWPzEumE7J6I-42" value="goarticle" style="rounded=1;whiteSpace=wrap;html=1;" parent="1" vertex="1">
          <mxGeometry x="1000" y="80" width="120" height="40" as="geometry"/>
        </mxCell>
        <mxCell id="xB0mq0CovWPzEumE7J6I-43" style="edgeStyle=orthogonalEdgeStyle;rounded=0;orthogonalLoop=1;jettySize=auto;html=1;entryX=0;entryY=0.5;entryDx=0;entryDy=0;strokeColor=#FFB570;" parent="1" source="xB0mq0CovWPzEumE7J6I-44" target="xB0mq0CovWPzEumE7J6I-48" edge="1">
          <mxGeometry relative="1" as="geometry"/>
        </mxCell>
        <mxCell id="xB0mq0CovWPzEumE7J6I-44" value="core_article" style="rounded=1;whiteSpace=wrap;html=1;" parent="1" vertex="1">
          <mxGeometry x="1001" y="200" width="120" height="40" as="geometry"/>
        </mxCell>
        <mxCell id="xB0mq0CovWPzEumE7J6I-45" style="edgeStyle=orthogonalEdgeStyle;rounded=0;orthogonalLoop=1;jettySize=auto;html=1;entryX=0;entryY=0.5;entryDx=0;entryDy=0;strokeColor=#FFB570;" parent="1" source="xB0mq0CovWPzEumE7J6I-48" target="xB0mq0CovWPzEumE7J6I-49" edge="1">
          <mxGeometry relative="1" as="geometry"/>
        </mxCell>
        <mxCell id="xB0mq0CovWPzEumE7J6I-48" value="pipeline&lt;br&gt;review" style="rounded=1;whiteSpace=wrap;html=1;" parent="1" vertex="1">
          <mxGeometry x="1280.5" y="180" width="120" height="80" as="geometry"/>
        </mxCell>
        <mxCell id="xB0mq0CovWPzEumE7J6I-49" value="commit" style="rounded=1;whiteSpace=wrap;html=1;" parent="1" vertex="1">
          <mxGeometry x="1520.5" y="200" width="120" height="40" as="geometry"/>
        </mxCell>
        <mxCell id="xB0mq0CovWPzEumE7J6I-50" value="发布" style="text;html=1;resizable=0;points=[];autosize=1;align=left;verticalAlign=top;spacingTop=-4;fillColor=#FFCE9F;" parent="1" vertex="1">
          <mxGeometry x="1061" y="170" width="40" height="20" as="geometry"/>
        </mxCell>
        <mxCell id="xB0mq0CovWPzEumE7J6I-55" value="item_status=45&lt;br&gt;vl=10/15" style="text;html=1;resizable=0;points=[];autosize=1;align=left;verticalAlign=top;spacingTop=-4;fillColor=#FFCE9F;" parent="1" vertex="1">
          <mxGeometry x="1408.5" y="190" width="100" height="30" as="geometry"/>
        </mxCell>
        <mxCell id="xB0mq0CovWPzEumE7J6I-227" style="edgeStyle=orthogonalEdgeStyle;rounded=0;orthogonalLoop=1;jettySize=auto;html=1;entryX=0;entryY=0.5;entryDx=0;entryDy=0;strokeColor=#9AC7BF;" parent="1" source="xB0mq0CovWPzEumE7J6I-58" target="xB0mq0CovWPzEumE7J6I-221" edge="1">
          <mxGeometry relative="1" as="geometry"/>
        </mxCell>
        <mxCell id="xB0mq0CovWPzEumE7J6I-58" value="publish_Item" style="rounded=1;whiteSpace=wrap;html=1;strokeColor=#000000;fillColor=none;" parent="1" vertex="1">
          <mxGeometry x="1279.5" y="80" width="120" height="40" as="geometry"/>
        </mxCell>
        <mxCell id="xB0mq0CovWPzEumE7J6I-60" value="发布" style="text;html=1;resizable=0;points=[];autosize=1;align=left;verticalAlign=top;spacingTop=-4;fillColor=#9AC7BF;" parent="1" vertex="1">
          <mxGeometry x="1180" y="80" width="40" height="20" as="geometry"/>
        </mxCell>
        <mxCell id="xB0mq0CovWPzEumE7J6I-74" value="gray_pipeline" style="rounded=1;whiteSpace=wrap;html=1;" parent="1" vertex="1">
          <mxGeometry x="1201" y="719" width="120" height="40" as="geometry"/>
        </mxCell>
        <mxCell id="xB0mq0CovWPzEumE7J6I-83" style="edgeStyle=orthogonalEdgeStyle;rounded=0;orthogonalLoop=1;jettySize=auto;html=1;entryX=0;entryY=0.5;entryDx=0;entryDy=0;strokeColor=#9AC7BF;" parent="1" source="xB0mq0CovWPzEumE7J6I-75" target="xB0mq0CovWPzEumE7J6I-34" edge="1">
          <mxGeometry relative="1" as="geometry"/>
        </mxCell>
        <mxCell id="xB0mq0CovWPzEumE7J6I-75" value="pipeline_callback" style="rounded=1;whiteSpace=wrap;html=1;" parent="1" vertex="1">
          <mxGeometry x="1401" y="919" width="120" height="40" as="geometry"/>
        </mxCell>
        <mxCell id="xB0mq0CovWPzEumE7J6I-76" value="commit" style="rounded=1;whiteSpace=wrap;html=1;" parent="1" vertex="1">
          <mxGeometry x="1520" y="799" width="120" height="40" as="geometry"/>
        </mxCell>
        <mxCell id="xB0mq0CovWPzEumE7J6I-79" value="审核结果&lt;br&gt;item_status=true_is" style="text;html=1;resizable=0;points=[];autosize=1;align=left;verticalAlign=top;spacingTop=-4;fillColor=#FFCE9F;strokeColor=#F8CECC;" parent="1" vertex="1">
          <mxGeometry x="1360" y="789" width="120" height="30" as="geometry"/>
        </mxCell>
        <mxCell id="xB0mq0CovWPzEumE7J6I-80" value="kafka" style="text;html=1;resizable=0;points=[];autosize=1;align=left;verticalAlign=top;spacingTop=-4;" parent="1" vertex="1">
          <mxGeometry x="1140" y="804" width="40" height="20" as="geometry"/>
        </mxCell>
        <mxCell id="xB0mq0CovWPzEumE7J6I-86" value="vl=true_vl" style="text;html=1;resizable=0;points=[];autosize=1;align=left;verticalAlign=top;spacingTop=-4;fillColor=#FFCE9F;" parent="1" vertex="1">
          <mxGeometry x="1380" y="823" width="70" height="20" as="geometry"/>
        </mxCell>
        <mxCell id="xB0mq0CovWPzEumE7J6I-90" value="审核结果&lt;br&gt;item_status=true_is" style="text;html=1;resizable=0;points=[];autosize=1;align=left;verticalAlign=top;spacingTop=-4;fillColor=#FFCE9F;strokeColor=#F8CECC;" parent="1" vertex="1">
          <mxGeometry x="540" y="630" width="120" height="30" as="geometry"/>
        </mxCell>
        <mxCell id="xB0mq0CovWPzEumE7J6I-91" value="vl=true_vl" style="text;html=1;resizable=0;points=[];autosize=1;align=left;verticalAlign=top;spacingTop=-4;fillColor=#FFCE9F;" parent="1" vertex="1">
          <mxGeometry x="560" y="665" width="70" height="20" as="geometry"/>
        </mxCell>
        <mxCell id="xB0mq0CovWPzEumE7J6I-93" value="&lt;span style=&quot;text-align: center ; white-space: normal&quot;&gt;修改gray的timer_publish&lt;br&gt;status/actul_publish_time&lt;/span&gt;" style="text;html=1;resizable=0;points=[];autosize=1;align=left;verticalAlign=top;spacingTop=-4;strokeColor=none;fillColor=#9AC7BF;" parent="1" vertex="1">
          <mxGeometry x="1060" y="979" width="150" height="30" as="geometry"/>
        </mxCell>
        <mxCell id="xB0mq0CovWPzEumE7J6I-94" value="审核结果&lt;br&gt;item_status=true_is" style="text;html=1;resizable=0;points=[];autosize=1;align=left;verticalAlign=top;spacingTop=-4;fillColor=#9AC7BF;strokeColor=none;" parent="1" vertex="1">
          <mxGeometry x="1290" y="856" width="120" height="30" as="geometry"/>
        </mxCell>
        <mxCell id="xB0mq0CovWPzEumE7J6I-95" value="vl=true_vl" style="text;html=1;resizable=0;points=[];autosize=1;align=left;verticalAlign=top;spacingTop=-4;fillColor=#9AC7BF;strokeColor=none;" parent="1" vertex="1">
          <mxGeometry x="1290" y="899" width="70" height="20" as="geometry"/>
        </mxCell>
        <mxCell id="xB0mq0CovWPzEumE7J6I-96" value="review接口处理item_status&lt;br&gt;20/25保持trur_is" style="ellipse;whiteSpace=wrap;html=1;strokeColor=#000000;fillColor=none;" parent="1" vertex="1">
          <mxGeometry x="1760" y="899" width="120" height="80" as="geometry"/>
        </mxCell>
        <mxCell id="xB0mq0CovWPzEumE7J6I-97" value="" style="endArrow=none;html=1;strokeColor=#9AC7BF;exitX=1;exitY=0.5;exitDx=0;exitDy=0;entryX=0;entryY=0.5;entryDx=0;entryDy=0;" parent="1" source="xB0mq0CovWPzEumE7J6I-34" target="xB0mq0CovWPzEumE7J6I-96" edge="1">
          <mxGeometry width="50" height="50" relative="1" as="geometry">
            <mxPoint x="1560" y="919" as="sourcePoint"/>
            <mxPoint x="1730" y="889" as="targetPoint"/>
          </mxGeometry>
        </mxCell>
        <mxCell id="xB0mq0CovWPzEumE7J6I-100" value="index_status=true_status" style="text;html=1;resizable=0;points=[];autosize=1;align=left;verticalAlign=top;spacingTop=-4;strokeColor=#F8CECC;fillColor=#FFCE9F;" parent="1" vertex="1">
          <mxGeometry x="1110" y="879" width="150" height="20" as="geometry"/>
        </mxCell>
        <mxCell id="xB0mq0CovWPzEumE7J6I-102" value="core_article" style="rounded=1;whiteSpace=wrap;html=1;" parent="1" vertex="1">
          <mxGeometry x="120" y="400" width="120" height="40" as="geometry"/>
        </mxCell>
        <mxCell id="xB0mq0CovWPzEumE7J6I-104" style="edgeStyle=orthogonalEdgeStyle;rounded=0;orthogonalLoop=1;jettySize=auto;html=1;exitX=0;exitY=0.5;exitDx=0;exitDy=0;strokeColor=#FFCE9F;" parent="1" source="xB0mq0CovWPzEumE7J6I-106" target="xB0mq0CovWPzEumE7J6I-102" edge="1">
          <mxGeometry relative="1" as="geometry"/>
        </mxCell>
        <mxCell id="xB0mq0CovWPzEumE7J6I-105" style="edgeStyle=orthogonalEdgeStyle;rounded=0;orthogonalLoop=1;jettySize=auto;html=1;entryX=0;entryY=0.5;entryDx=0;entryDy=0;strokeColor=#FFCE9F;" parent="1" source="xB0mq0CovWPzEumE7J6I-106" target="xB0mq0CovWPzEumE7J6I-107" edge="1">
          <mxGeometry relative="1" as="geometry"/>
        </mxCell>
        <mxCell id="xB0mq0CovWPzEumE7J6I-106" value="pipeline&lt;br&gt;review" style="rounded=1;whiteSpace=wrap;html=1;" parent="1" vertex="1">
          <mxGeometry x="400" y="380" width="120" height="80" as="geometry"/>
        </mxCell>
        <mxCell id="xB0mq0CovWPzEumE7J6I-107" value="commit" style="rounded=1;whiteSpace=wrap;html=1;" parent="1" vertex="1">
          <mxGeometry x="680" y="400" width="120" height="40" as="geometry"/>
        </mxCell>
        <mxCell id="xB0mq0CovWPzEumE7J6I-108" value="审核结果&lt;br&gt;pgc_status=3/0" style="text;html=1;resizable=0;points=[];autosize=1;align=left;verticalAlign=top;spacingTop=-4;fillColor=#FFCE9F;" parent="1" vertex="1">
          <mxGeometry x="270" y="390" width="100" height="30" as="geometry"/>
        </mxCell>
        <mxCell id="xB0mq0CovWPzEumE7J6I-109" value="index_status=45" style="text;html=1;resizable=0;points=[];autosize=1;align=left;verticalAlign=top;spacingTop=-4;fillColor=#FFCE9F;" parent="1" vertex="1">
          <mxGeometry x="270" y="425" width="100" height="20" as="geometry"/>
        </mxCell>
        <mxCell id="xB0mq0CovWPzEumE7J6I-110" value="审核结果&lt;br&gt;item_status=45" style="text;html=1;resizable=0;points=[];autosize=1;align=left;verticalAlign=top;spacingTop=-4;fillColor=#FFCE9F;" parent="1" vertex="1">
          <mxGeometry x="550" y="390" width="100" height="30" as="geometry"/>
        </mxCell>
        <mxCell id="xB0mq0CovWPzEumE7J6I-111" value="vl=10/15" style="text;html=1;resizable=0;points=[];autosize=1;align=left;verticalAlign=top;spacingTop=-4;fillColor=#FFCE9F;" parent="1" vertex="1">
          <mxGeometry x="570" y="425" width="60" height="20" as="geometry"/>
        </mxCell>
        <mxCell id="xB0mq0CovWPzEumE7J6I-115" style="edgeStyle=orthogonalEdgeStyle;rounded=0;orthogonalLoop=1;jettySize=auto;html=1;entryX=0;entryY=0.5;entryDx=0;entryDy=0;strokeColor=#FFB570;" parent="1" edge="1">
          <mxGeometry relative="1" as="geometry">
            <mxPoint x="1210" y="190" as="targetPoint"/>
          </mxGeometry>
        </mxCell>
        <mxCell id="xB0mq0CovWPzEumE7J6I-121" style="edgeStyle=orthogonalEdgeStyle;rounded=0;orthogonalLoop=1;jettySize=auto;html=1;entryX=0.5;entryY=0;entryDx=0;entryDy=0;strokeColor=#9AC7BF;" parent="1" edge="1">
          <mxGeometry relative="1" as="geometry">
            <mxPoint x="1270" y="230" as="sourcePoint"/>
          </mxGeometry>
        </mxCell>
        <mxCell id="xB0mq0CovWPzEumE7J6I-136" value="" style="endArrow=none;html=1;strokeColor=#9AC7BF;entryX=0.5;entryY=1;entryDx=0;entryDy=0;" parent="1" edge="1">
          <mxGeometry width="50" height="50" relative="1" as="geometry">
            <mxPoint x="1350" y="450" as="sourcePoint"/>
            <mxPoint x="1510" y="370" as="targetPoint"/>
          </mxGeometry>
        </mxCell>
        <mxCell id="xB0mq0CovWPzEumE7J6I-139" style="edgeStyle=orthogonalEdgeStyle;rounded=0;orthogonalLoop=1;jettySize=auto;html=1;exitX=0.5;exitY=1;exitDx=0;exitDy=0;entryX=0;entryY=0.5;entryDx=0;entryDy=0;strokeColor=#9AC7BF;" parent="1" source="xB0mq0CovWPzEumE7J6I-140" target="xB0mq0CovWPzEumE7J6I-154" edge="1">
          <mxGeometry relative="1" as="geometry"/>
        </mxCell>
        <mxCell id="xB0mq0CovWPzEumE7J6I-140" value="core_article" style="rounded=1;whiteSpace=wrap;html=1;" parent="1" vertex="1">
          <mxGeometry x="999" y="361" width="120" height="40" as="geometry"/>
        </mxCell>
        <mxCell id="xB0mq0CovWPzEumE7J6I-142" style="edgeStyle=orthogonalEdgeStyle;rounded=0;orthogonalLoop=1;jettySize=auto;html=1;entryX=1;entryY=0.5;entryDx=0;entryDy=0;exitX=0;exitY=0.5;exitDx=0;exitDy=0;strokeColor=#FFCE9F;" parent="1" source="xB0mq0CovWPzEumE7J6I-145" target="xB0mq0CovWPzEumE7J6I-140" edge="1">
          <mxGeometry relative="1" as="geometry"/>
        </mxCell>
        <mxCell id="xB0mq0CovWPzEumE7J6I-143" style="edgeStyle=orthogonalEdgeStyle;rounded=0;orthogonalLoop=1;jettySize=auto;html=1;entryX=0;entryY=0.5;entryDx=0;entryDy=0;exitX=1;exitY=0.5;exitDx=0;exitDy=0;strokeColor=#FFCE9F;" parent="1" source="xB0mq0CovWPzEumE7J6I-145" target="xB0mq0CovWPzEumE7J6I-146" edge="1">
          <mxGeometry relative="1" as="geometry"/>
        </mxCell>
        <mxCell id="xB0mq0CovWPzEumE7J6I-144" style="edgeStyle=orthogonalEdgeStyle;rounded=0;orthogonalLoop=1;jettySize=auto;html=1;entryX=0.5;entryY=0;entryDx=0;entryDy=0;strokeColor=#9AC7BF;" parent="1" source="xB0mq0CovWPzEumE7J6I-145" target="xB0mq0CovWPzEumE7J6I-154" edge="1">
          <mxGeometry relative="1" as="geometry"/>
        </mxCell>
        <mxCell id="xB0mq0CovWPzEumE7J6I-145" value="pipeline&lt;br&gt;review" style="rounded=1;whiteSpace=wrap;html=1;" parent="1" vertex="1">
          <mxGeometry x="1279" y="341" width="120" height="80" as="geometry"/>
        </mxCell>
        <mxCell id="xB0mq0CovWPzEumE7J6I-146" value="commit" style="rounded=1;whiteSpace=wrap;html=1;" parent="1" vertex="1">
          <mxGeometry x="1560" y="360.5" width="120" height="40" as="geometry"/>
        </mxCell>
        <mxCell id="xB0mq0CovWPzEumE7J6I-148" value="审核结果&lt;br&gt;pgc_status=3/0" style="text;html=1;resizable=0;points=[];autosize=1;align=left;verticalAlign=top;spacingTop=-4;fillColor=#FFCE9F;" parent="1" vertex="1">
          <mxGeometry x="1149" y="351" width="100" height="30" as="geometry"/>
        </mxCell>
        <mxCell id="xB0mq0CovWPzEumE7J6I-149" value="index_status=45" style="text;html=1;resizable=0;points=[];autosize=1;align=left;verticalAlign=top;spacingTop=-4;fillColor=#FFCE9F;" parent="1" vertex="1">
          <mxGeometry x="1149" y="384" width="100" height="20" as="geometry"/>
        </mxCell>
        <mxCell id="xB0mq0CovWPzEumE7J6I-150" value="审核结果&lt;br&gt;item_status=45" style="text;html=1;resizable=0;points=[];autosize=1;align=left;verticalAlign=top;spacingTop=-4;fillColor=#FFCE9F;" parent="1" vertex="1">
          <mxGeometry x="1429.5" y="351" width="100" height="30" as="geometry"/>
        </mxCell>
        <mxCell id="xB0mq0CovWPzEumE7J6I-151" value="vl=10/15" style="text;html=1;resizable=0;points=[];autosize=1;align=left;verticalAlign=top;spacingTop=-4;fillColor=#FFCE9F;" parent="1" vertex="1">
          <mxGeometry x="1449.5" y="384" width="60" height="20" as="geometry"/>
        </mxCell>
        <mxCell id="xB0mq0CovWPzEumE7J6I-153" style="edgeStyle=orthogonalEdgeStyle;rounded=0;orthogonalLoop=1;jettySize=auto;html=1;entryX=0;entryY=0.5;entryDx=0;entryDy=0;strokeColor=#9AC7BF;" parent="1" source="xB0mq0CovWPzEumE7J6I-154" target="xB0mq0CovWPzEumE7J6I-155" edge="1">
          <mxGeometry relative="1" as="geometry"/>
        </mxCell>
        <mxCell id="xB0mq0CovWPzEumE7J6I-154" value="pipeline_callback" style="rounded=1;whiteSpace=wrap;html=1;strokeColor=#000000;fillColor=none;" parent="1" vertex="1">
          <mxGeometry x="1279" y="521" width="120" height="40" as="geometry"/>
        </mxCell>
        <mxCell id="xB0mq0CovWPzEumE7J6I-155" value="publish_Item_gray" style="rounded=1;whiteSpace=wrap;html=1;strokeColor=#000000;fillColor=none;" parent="1" vertex="1">
          <mxGeometry x="1541" y="521" width="120" height="40" as="geometry"/>
        </mxCell>
        <mxCell id="xB0mq0CovWPzEumE7J6I-158" value="审核结果&lt;br&gt;item_status=20/25" style="text;html=1;resizable=0;points=[];autosize=1;align=left;verticalAlign=top;spacingTop=-4;fillColor=#9AC7BF;" parent="1" vertex="1">
          <mxGeometry x="1059" y="481" width="110" height="30" as="geometry"/>
        </mxCell>
        <mxCell id="xB0mq0CovWPzEumE7J6I-159" value="review接口处理item_status&lt;br&gt;20/25 --&amp;gt; 45" style="ellipse;whiteSpace=wrap;html=1;strokeColor=#000000;fillColor=none;" parent="1" vertex="1">
          <mxGeometry x="1680" y="501" width="120" height="80" as="geometry"/>
        </mxCell>
        <mxCell id="xB0mq0CovWPzEumE7J6I-160" value="" style="endArrow=none;html=1;strokeColor=#9AC7BF;entryX=1;entryY=0.5;entryDx=0;entryDy=0;" parent="1" source="xB0mq0CovWPzEumE7J6I-159" target="xB0mq0CovWPzEumE7J6I-155" edge="1">
          <mxGeometry width="50" height="50" relative="1" as="geometry">
            <mxPoint x="1459" y="641" as="sourcePoint"/>
            <mxPoint x="1680" y="541" as="targetPoint"/>
          </mxGeometry>
        </mxCell>
        <mxCell id="xB0mq0CovWPzEumE7J6I-161" value="修改vl=10/15" style="text;html=1;resizable=0;points=[];autosize=1;align=left;verticalAlign=top;spacingTop=-4;fillColor=#9AC7BF;" parent="1" vertex="1">
          <mxGeometry x="1339" y="481" width="90" height="20" as="geometry"/>
        </mxCell>
        <mxCell id="xB0mq0CovWPzEumE7J6I-163" value="item_status=45&lt;br&gt;vl=init_vl" style="text;html=1;resizable=0;points=[];autosize=1;align=left;verticalAlign=top;spacingTop=-4;fillColor=#9AC7BF;" parent="1" vertex="1">
          <mxGeometry x="1150" y="105" width="92" height="28" as="geometry"/>
        </mxCell>
        <mxCell id="xB0mq0CovWPzEumE7J6I-164" value="审核结果&lt;br&gt;item_status=20/25" style="text;html=1;resizable=0;points=[];autosize=1;align=left;verticalAlign=top;spacingTop=-4;fillColor=#9AC7BF;" parent="1" vertex="1">
          <mxGeometry x="1409" y="511" width="110" height="30" as="geometry"/>
        </mxCell>
        <mxCell id="xB0mq0CovWPzEumE7J6I-165" value="kafka" style="text;html=1;resizable=0;points=[];autosize=1;align=left;verticalAlign=top;spacingTop=-4;" parent="1" vertex="1">
          <mxGeometry x="340" y="640" width="40" height="20" as="geometry"/>
        </mxCell>
        <mxCell id="xB0mq0CovWPzEumE7J6I-189" style="edgeStyle=orthogonalEdgeStyle;rounded=0;orthogonalLoop=1;jettySize=auto;html=1;entryX=0.5;entryY=0;entryDx=0;entryDy=0;strokeColor=#9AC7BF;" parent="1" source="xB0mq0CovWPzEumE7J6I-190" target="xB0mq0CovWPzEumE7J6I-197" edge="1">
          <mxGeometry relative="1" as="geometry"/>
        </mxCell>
        <mxCell id="xB0mq0CovWPzEumE7J6I-190" value="timer_publish" style="rounded=1;whiteSpace=wrap;html=1;fillColor=none;" parent="1" vertex="1">
          <mxGeometry x="2121" y="680" width="120" height="40" as="geometry"/>
        </mxCell>
        <mxCell id="xB0mq0CovWPzEumE7J6I-191" style="edgeStyle=orthogonalEdgeStyle;rounded=0;orthogonalLoop=1;jettySize=auto;html=1;strokeColor=#9AC7BF;" parent="1" source="xB0mq0CovWPzEumE7J6I-192" target="xB0mq0CovWPzEumE7J6I-202" edge="1">
          <mxGeometry relative="1" as="geometry"/>
        </mxCell>
        <mxCell id="xB0mq0CovWPzEumE7J6I-192" value="pipeline" style="rounded=1;whiteSpace=wrap;html=1;" parent="1" vertex="1">
          <mxGeometry x="2321" y="680" width="120" height="40" as="geometry"/>
        </mxCell>
        <mxCell id="xB0mq0CovWPzEumE7J6I-193" style="edgeStyle=orthogonalEdgeStyle;rounded=0;orthogonalLoop=1;jettySize=auto;html=1;entryX=0;entryY=0.5;entryDx=0;entryDy=0;strokeColor=#9AC7BF;exitX=1;exitY=0.5;exitDx=0;exitDy=0;" parent="1" source="xB0mq0CovWPzEumE7J6I-190" target="xB0mq0CovWPzEumE7J6I-192" edge="1">
          <mxGeometry relative="1" as="geometry">
            <mxPoint x="2171" y="670" as="sourcePoint"/>
            <mxPoint x="2312" y="610" as="targetPoint"/>
          </mxGeometry>
        </mxCell>
        <mxCell id="xB0mq0CovWPzEumE7J6I-194" value="enqueue" style="text;html=1;resizable=0;points=[];align=center;verticalAlign=middle;labelBackgroundColor=#ffffff;" parent="xB0mq0CovWPzEumE7J6I-193" vertex="1" connectable="0">
          <mxGeometry x="0.0429" y="4" relative="1" as="geometry">
            <mxPoint x="-1.5" y="-6" as="offset"/>
          </mxGeometry>
        </mxCell>
        <mxCell id="xB0mq0CovWPzEumE7J6I-195" style="edgeStyle=orthogonalEdgeStyle;rounded=0;orthogonalLoop=1;jettySize=auto;html=1;strokeColor=#9AC7BF;" parent="1" source="xB0mq0CovWPzEumE7J6I-197" target="xB0mq0CovWPzEumE7J6I-199" edge="1">
          <mxGeometry relative="1" as="geometry"/>
        </mxCell>
        <mxCell id="xB0mq0CovWPzEumE7J6I-196" style="edgeStyle=orthogonalEdgeStyle;rounded=0;orthogonalLoop=1;jettySize=auto;html=1;entryX=0;entryY=0.5;entryDx=0;entryDy=0;strokeColor=#9AC7BF;" parent="1" source="xB0mq0CovWPzEumE7J6I-197" target="xB0mq0CovWPzEumE7J6I-200" edge="1">
          <mxGeometry relative="1" as="geometry"/>
        </mxCell>
        <mxCell id="xB0mq0CovWPzEumE7J6I-197" value="pgc_exist" style="rhombus;whiteSpace=wrap;html=1;strokeColor=#000000;fillColor=none;" parent="1" vertex="1">
          <mxGeometry x="2120" y="780" width="121" height="80" as="geometry"/>
        </mxCell>
        <mxCell id="xB0mq0CovWPzEumE7J6I-198" style="edgeStyle=orthogonalEdgeStyle;rounded=0;orthogonalLoop=1;jettySize=auto;html=1;entryX=0.5;entryY=1;entryDx=0;entryDy=0;strokeColor=#9AC7BF;exitX=1;exitY=0.25;exitDx=0;exitDy=0;" parent="1" source="xB0mq0CovWPzEumE7J6I-199" target="xB0mq0CovWPzEumE7J6I-200" edge="1">
          <mxGeometry relative="1" as="geometry"/>
        </mxCell>
        <mxCell id="xB0mq0CovWPzEumE7J6I-199" value="core_article" style="rounded=1;whiteSpace=wrap;html=1;strokeColor=#000000;fillColor=none;" parent="1" vertex="1">
          <mxGeometry x="2121" y="939" width="120" height="40" as="geometry"/>
        </mxCell>
        <mxCell id="xB0mq0CovWPzEumE7J6I-200" value="publish_item" style="rounded=1;whiteSpace=wrap;html=1;strokeColor=#000000;fillColor=none;" parent="1" vertex="1">
          <mxGeometry x="2600" y="800" width="120" height="40" as="geometry"/>
        </mxCell>
        <mxCell id="xB0mq0CovWPzEumE7J6I-201" style="edgeStyle=orthogonalEdgeStyle;rounded=0;orthogonalLoop=1;jettySize=auto;html=1;entryX=0.5;entryY=0;entryDx=0;entryDy=0;strokeColor=#9AC7BF;" parent="1" source="xB0mq0CovWPzEumE7J6I-202" target="xB0mq0CovWPzEumE7J6I-200" edge="1">
          <mxGeometry relative="1" as="geometry"/>
        </mxCell>
        <mxCell id="xB0mq0CovWPzEumE7J6I-280" style="edgeStyle=orthogonalEdgeStyle;rounded=0;orthogonalLoop=1;jettySize=auto;html=1;entryX=0;entryY=0.5;entryDx=0;entryDy=0;strokeColor=#9AC7BF;" parent="1" source="xB0mq0CovWPzEumE7J6I-202" target="xB0mq0CovWPzEumE7J6I-279" edge="1">
          <mxGeometry relative="1" as="geometry"/>
        </mxCell>
        <mxCell id="xB0mq0CovWPzEumE7J6I-202" value="pipeline_callback" style="rounded=1;whiteSpace=wrap;html=1;strokeColor=#000000;fillColor=none;" parent="1" vertex="1">
          <mxGeometry x="2600" y="680" width="120" height="40" as="geometry"/>
        </mxCell>
        <mxCell id="xB0mq0CovWPzEumE7J6I-203" value="&lt;span style=&quot;text-align: center ; white-space: normal&quot;&gt;修改timer_publish&lt;br&gt;status/actul_publish_time&lt;/span&gt;" style="text;html=1;resizable=0;points=[];autosize=1;align=left;verticalAlign=top;spacingTop=-4;strokeColor=none;fillColor=#9AC7BF;" parent="1" vertex="1">
          <mxGeometry x="2180.5" y="891.5" width="150" height="30" as="geometry"/>
        </mxCell>
        <mxCell id="xB0mq0CovWPzEumE7J6I-204" value="&lt;span style=&quot;text-align: center ; white-space: normal&quot;&gt;修改timer_publish&lt;br&gt;status/actul_publish_time&lt;/span&gt;" style="text;html=1;resizable=0;points=[];autosize=1;align=left;verticalAlign=top;spacingTop=-4;strokeColor=none;fillColor=#9AC7BF;" parent="1" vertex="1">
          <mxGeometry x="2300.5" y="790" width="150" height="30" as="geometry"/>
        </mxCell>
        <mxCell id="xB0mq0CovWPzEumE7J6I-205" value="审核结果&lt;br&gt;item_status=true_is" style="text;html=1;resizable=0;points=[];autosize=1;align=left;verticalAlign=top;spacingTop=-4;fillColor=#9AC7BF;strokeColor=none;" parent="1" vertex="1">
          <mxGeometry x="2460.5" y="670" width="120" height="30" as="geometry"/>
        </mxCell>
        <mxCell id="xB0mq0CovWPzEumE7J6I-206" value="vl=true_vl" style="text;html=1;resizable=0;points=[];autosize=1;align=left;verticalAlign=top;spacingTop=-4;fillColor=#9AC7BF;strokeColor=none;" parent="1" vertex="1">
          <mxGeometry x="2485.5" y="705" width="70" height="20" as="geometry"/>
        </mxCell>
        <mxCell id="xB0mq0CovWPzEumE7J6I-207" style="edgeStyle=orthogonalEdgeStyle;rounded=0;orthogonalLoop=1;jettySize=auto;html=1;entryX=0.5;entryY=0;entryDx=0;entryDy=0;strokeColor=#9AC7BF;" parent="1" source="xB0mq0CovWPzEumE7J6I-209" target="xB0mq0CovWPzEumE7J6I-211" edge="1">
          <mxGeometry relative="1" as="geometry"/>
        </mxCell>
        <mxCell id="xB0mq0CovWPzEumE7J6I-208" style="edgeStyle=orthogonalEdgeStyle;rounded=0;orthogonalLoop=1;jettySize=auto;html=1;entryX=0;entryY=0.5;entryDx=0;entryDy=0;strokeColor=#9AC7BF;" parent="1" source="xB0mq0CovWPzEumE7J6I-209" target="xB0mq0CovWPzEumE7J6I-217" edge="1">
          <mxGeometry relative="1" as="geometry"/>
        </mxCell>
        <mxCell id="xB0mq0CovWPzEumE7J6I-209" value="goarticle" style="rounded=1;whiteSpace=wrap;html=1;" parent="1" vertex="1">
          <mxGeometry x="1881" y="80" width="120" height="40" as="geometry"/>
        </mxCell>
        <mxCell id="xB0mq0CovWPzEumE7J6I-211" value="core_article" style="rounded=1;whiteSpace=wrap;html=1;" parent="1" vertex="1">
          <mxGeometry x="1881" y="160" width="120" height="40" as="geometry"/>
        </mxCell>
        <mxCell id="xB0mq0CovWPzEumE7J6I-215" value="发布" style="text;html=1;resizable=0;points=[];autosize=1;align=left;verticalAlign=top;spacingTop=-4;fillColor=#9AC7BF;" parent="1" vertex="1">
          <mxGeometry x="1941" y="130" width="40" height="20" as="geometry"/>
        </mxCell>
        <mxCell id="xB0mq0CovWPzEumE7J6I-229" style="edgeStyle=orthogonalEdgeStyle;rounded=0;orthogonalLoop=1;jettySize=auto;html=1;entryX=0;entryY=0.5;entryDx=0;entryDy=0;strokeColor=#9AC7BF;" parent="1" source="xB0mq0CovWPzEumE7J6I-217" target="xB0mq0CovWPzEumE7J6I-228" edge="1">
          <mxGeometry relative="1" as="geometry"/>
        </mxCell>
        <mxCell id="xB0mq0CovWPzEumE7J6I-217" value="publish_Item" style="rounded=1;whiteSpace=wrap;html=1;strokeColor=#000000;fillColor=none;" parent="1" vertex="1">
          <mxGeometry x="2160" y="80" width="120" height="40" as="geometry"/>
        </mxCell>
        <mxCell id="xB0mq0CovWPzEumE7J6I-218" value="发布" style="text;html=1;resizable=0;points=[];autosize=1;align=left;verticalAlign=top;spacingTop=-4;fillColor=#9AC7BF;" parent="1" vertex="1">
          <mxGeometry x="2060.5" y="80" width="40" height="20" as="geometry"/>
        </mxCell>
        <mxCell id="xB0mq0CovWPzEumE7J6I-220" value="item_status=45&lt;br&gt;vl=init_vl" style="text;html=1;resizable=0;points=[];autosize=1;align=left;verticalAlign=top;spacingTop=-4;fillColor=#9AC7BF;" parent="1" vertex="1">
          <mxGeometry x="2030.5" y="105" width="92" height="28" as="geometry"/>
        </mxCell>
        <mxCell id="xB0mq0CovWPzEumE7J6I-221" value="gray_pipeline" style="rounded=1;whiteSpace=wrap;html=1;strokeColor=#000000;fillColor=none;" parent="1" vertex="1">
          <mxGeometry x="1520.5" y="80" width="120" height="40" as="geometry"/>
        </mxCell>
        <mxCell id="xB0mq0CovWPzEumE7J6I-223" value="kafka" style="text;html=1;resizable=0;points=[];autosize=1;align=left;verticalAlign=top;spacingTop=-4;" parent="1" vertex="1">
          <mxGeometry x="1179" y="200" width="40" height="20" as="geometry"/>
        </mxCell>
        <mxCell id="xB0mq0CovWPzEumE7J6I-224" value="enqueue" style="text;html=1;resizable=0;points=[];autosize=1;align=left;verticalAlign=top;spacingTop=-4;" parent="1" vertex="1">
          <mxGeometry x="1428.5" y="80" width="60" height="20" as="geometry"/>
        </mxCell>
        <mxCell id="xB0mq0CovWPzEumE7J6I-231" style="edgeStyle=orthogonalEdgeStyle;rounded=0;orthogonalLoop=1;jettySize=auto;html=1;strokeColor=#9AC7BF;" parent="1" source="xB0mq0CovWPzEumE7J6I-228" target="xB0mq0CovWPzEumE7J6I-230" edge="1">
          <mxGeometry relative="1" as="geometry"/>
        </mxCell>
        <mxCell id="xB0mq0CovWPzEumE7J6I-228" value="pipeline" style="rounded=1;whiteSpace=wrap;html=1;strokeColor=#000000;fillColor=none;" parent="1" vertex="1">
          <mxGeometry x="2360" y="80" width="120" height="40" as="geometry"/>
        </mxCell>
        <mxCell id="xB0mq0CovWPzEumE7J6I-232" style="edgeStyle=orthogonalEdgeStyle;rounded=0;orthogonalLoop=1;jettySize=auto;html=1;entryX=0.5;entryY=1;entryDx=0;entryDy=0;strokeColor=#9AC7BF;" parent="1" source="xB0mq0CovWPzEumE7J6I-230" target="xB0mq0CovWPzEumE7J6I-217" edge="1">
          <mxGeometry relative="1" as="geometry"/>
        </mxCell>
        <mxCell id="xB0mq0CovWPzEumE7J6I-230" value="pipeline_callback" style="rounded=1;whiteSpace=wrap;html=1;strokeColor=#000000;fillColor=none;" parent="1" vertex="1">
          <mxGeometry x="2360" y="180" width="120" height="40" as="geometry"/>
        </mxCell>
        <mxCell id="xB0mq0CovWPzEumE7J6I-233" value="vl=10/15" style="text;html=1;resizable=0;points=[];autosize=1;align=left;verticalAlign=top;spacingTop=-4;fillColor=#9AC7BF;" parent="1" vertex="1">
          <mxGeometry x="2420.5" y="130" width="60" height="20" as="geometry"/>
        </mxCell>
        <mxCell id="xB0mq0CovWPzEumE7J6I-235" value="core_article" style="rounded=1;whiteSpace=wrap;html=1;" parent="1" vertex="1">
          <mxGeometry x="1841" y="539.5" width="120" height="40" as="geometry"/>
        </mxCell>
        <mxCell id="xB0mq0CovWPzEumE7J6I-238" style="edgeStyle=orthogonalEdgeStyle;rounded=0;orthogonalLoop=1;jettySize=auto;html=1;entryX=0.5;entryY=0;entryDx=0;entryDy=0;strokeColor=#9AC7BF;" parent="1" source="xB0mq0CovWPzEumE7J6I-239" target="xB0mq0CovWPzEumE7J6I-246" edge="1">
          <mxGeometry relative="1" as="geometry"/>
        </mxCell>
        <mxCell id="xB0mq0CovWPzEumE7J6I-239" value="pipeline&lt;br&gt;review" style="rounded=1;whiteSpace=wrap;html=1;" parent="1" vertex="1">
          <mxGeometry x="2119" y="282" width="120" height="80" as="geometry"/>
        </mxCell>
        <mxCell id="xB0mq0CovWPzEumE7J6I-242" value="index_status=45" style="text;html=1;resizable=0;points=[];autosize=1;align=left;verticalAlign=top;spacingTop=-4;fillColor=#9AC7BF;" parent="1" vertex="1">
          <mxGeometry x="1981" y="565" width="100" height="20" as="geometry"/>
        </mxCell>
        <mxCell id="xB0mq0CovWPzEumE7J6I-245" style="edgeStyle=orthogonalEdgeStyle;rounded=0;orthogonalLoop=1;jettySize=auto;html=1;entryX=0;entryY=0.5;entryDx=0;entryDy=0;strokeColor=#9AC7BF;" parent="1" source="xB0mq0CovWPzEumE7J6I-246" target="xB0mq0CovWPzEumE7J6I-247" edge="1">
          <mxGeometry relative="1" as="geometry"/>
        </mxCell>
        <mxCell id="xB0mq0CovWPzEumE7J6I-260" style="edgeStyle=orthogonalEdgeStyle;rounded=0;orthogonalLoop=1;jettySize=auto;html=1;entryX=0.5;entryY=0;entryDx=0;entryDy=0;strokeColor=#9AC7BF;" parent="1" source="xB0mq0CovWPzEumE7J6I-246" target="xB0mq0CovWPzEumE7J6I-256" edge="1">
          <mxGeometry relative="1" as="geometry"/>
        </mxCell>
        <mxCell id="xB0mq0CovWPzEumE7J6I-246" value="pipeline_callback" style="rounded=1;whiteSpace=wrap;html=1;strokeColor=#000000;fillColor=none;" parent="1" vertex="1">
          <mxGeometry x="2118.5" y="442" width="120" height="40" as="geometry"/>
        </mxCell>
        <mxCell id="xB0mq0CovWPzEumE7J6I-247" value="publish_Item" style="rounded=1;whiteSpace=wrap;html=1;strokeColor=#000000;fillColor=none;" parent="1" vertex="1">
          <mxGeometry x="2400" y="442" width="120" height="40" as="geometry"/>
        </mxCell>
        <mxCell id="xB0mq0CovWPzEumE7J6I-249" value="review接口处理item_status&lt;br&gt;20/25 --&amp;gt; 45" style="ellipse;whiteSpace=wrap;html=1;strokeColor=#000000;fillColor=none;" parent="1" vertex="1">
          <mxGeometry x="2400" y="503.5" width="120" height="80" as="geometry"/>
        </mxCell>
        <mxCell id="xB0mq0CovWPzEumE7J6I-250" value="" style="endArrow=none;html=1;strokeColor=#9AC7BF;entryX=0.5;entryY=1;entryDx=0;entryDy=0;" parent="1" source="xB0mq0CovWPzEumE7J6I-249" target="xB0mq0CovWPzEumE7J6I-247" edge="1">
          <mxGeometry width="50" height="50" relative="1" as="geometry">
            <mxPoint x="2378.5" y="583.5" as="sourcePoint"/>
            <mxPoint x="2428.5" y="533.5" as="targetPoint"/>
          </mxGeometry>
        </mxCell>
        <mxCell id="xB0mq0CovWPzEumE7J6I-251" value="修改vl=10/15" style="text;html=1;resizable=0;points=[];autosize=1;align=left;verticalAlign=top;spacingTop=-4;fillColor=#9AC7BF;" parent="1" vertex="1">
          <mxGeometry x="2179" y="405.5" width="90" height="20" as="geometry"/>
        </mxCell>
        <mxCell id="xB0mq0CovWPzEumE7J6I-252" value="审核结果&lt;br&gt;item_status=20/25" style="text;html=1;resizable=0;points=[];autosize=1;align=left;verticalAlign=top;spacingTop=-4;fillColor=#9AC7BF;" parent="1" vertex="1">
          <mxGeometry x="2264.5" y="462" width="110" height="30" as="geometry"/>
        </mxCell>
        <mxCell id="xB0mq0CovWPzEumE7J6I-254" value="审核结果&lt;br&gt;pgc_status=3/0" style="text;html=1;resizable=0;points=[];autosize=1;align=left;verticalAlign=top;spacingTop=-4;fillColor=#9AC7BF;" parent="1" vertex="1">
          <mxGeometry x="2178.5" y="370.5" width="100" height="30" as="geometry"/>
        </mxCell>
        <mxCell id="xB0mq0CovWPzEumE7J6I-258" style="edgeStyle=orthogonalEdgeStyle;rounded=0;orthogonalLoop=1;jettySize=auto;html=1;entryX=1;entryY=0.5;entryDx=0;entryDy=0;strokeColor=#9AC7BF;" parent="1" source="xB0mq0CovWPzEumE7J6I-256" target="xB0mq0CovWPzEumE7J6I-235" edge="1">
          <mxGeometry relative="1" as="geometry"/>
        </mxCell>
        <mxCell id="xB0mq0CovWPzEumE7J6I-256" value="pgcExist" style="rhombus;whiteSpace=wrap;html=1;strokeColor=#000000;fillColor=none;" parent="1" vertex="1">
          <mxGeometry x="2118.5" y="520.5" width="120" height="78" as="geometry"/>
        </mxCell>
        <mxCell id="xB0mq0CovWPzEumE7J6I-259" value="审核结果&lt;br&gt;pgc_status=3/0" style="text;html=1;resizable=0;points=[];autosize=1;align=left;verticalAlign=top;spacingTop=-4;fillColor=#9AC7BF;" parent="1" vertex="1">
          <mxGeometry x="1981" y="529.5" width="100" height="30" as="geometry"/>
        </mxCell>
        <mxCell id="xB0mq0CovWPzEumE7J6I-261" value="修改vl=10/15" style="text;html=1;resizable=0;points=[];autosize=1;align=left;verticalAlign=top;spacingTop=-4;fillColor=#9AC7BF;" parent="1" vertex="1">
          <mxGeometry x="2274.5" y="439" width="90" height="20" as="geometry"/>
        </mxCell>
        <mxCell id="xB0mq0CovWPzEumE7J6I-262" value="是" style="text;html=1;resizable=0;points=[];autosize=1;align=left;verticalAlign=top;spacingTop=-4;" parent="1" vertex="1">
          <mxGeometry x="2180.5" y="860" width="22" height="14" as="geometry"/>
        </mxCell>
        <mxCell id="xB0mq0CovWPzEumE7J6I-263" value="否" style="text;html=1;resizable=0;points=[];autosize=1;align=left;verticalAlign=top;spacingTop=-4;" parent="1" vertex="1">
          <mxGeometry x="2252.5" y="804" width="22" height="14" as="geometry"/>
        </mxCell>
        <mxCell id="xB0mq0CovWPzEumE7J6I-264" value="是" style="text;html=1;resizable=0;points=[];autosize=1;align=left;verticalAlign=top;spacingTop=-4;" parent="1" vertex="1">
          <mxGeometry x="2091" y="541" width="30" height="20" as="geometry"/>
        </mxCell>
        <mxCell id="xB0mq0CovWPzEumE7J6I-267" value="gray_leve=0 发文" style="text;html=1;resizable=0;points=[];autosize=1;align=left;verticalAlign=top;spacingTop=-4;" parent="1" vertex="1">
          <mxGeometry x="410" y="250" width="110" height="20" as="geometry"/>
        </mxCell>
        <mxCell id="xB0mq0CovWPzEumE7J6I-268" value="gray_leve=0 审核结果" style="text;html=1;resizable=0;points=[];autosize=1;align=left;verticalAlign=top;spacingTop=-4;" parent="1" vertex="1">
          <mxGeometry x="405" y="490" width="130" height="20" as="geometry"/>
        </mxCell>
        <mxCell id="xB0mq0CovWPzEumE7J6I-269" value="gray_leve=0 到时发表" style="text;html=1;resizable=0;points=[];autosize=1;align=left;verticalAlign=top;spacingTop=-4;" parent="1" vertex="1">
          <mxGeometry x="405" y="820" width="130" height="20" as="geometry"/>
        </mxCell>
        <mxCell id="xB0mq0CovWPzEumE7J6I-270" value="gray_level=1 发文" style="text;html=1;resizable=0;points=[];autosize=1;align=left;verticalAlign=top;spacingTop=-4;" parent="1" vertex="1">
          <mxGeometry x="1294" y="288" width="110" height="20" as="geometry"/>
        </mxCell>
        <mxCell id="xB0mq0CovWPzEumE7J6I-271" value="gray_leve=1 审核结果" style="text;html=1;resizable=0;points=[];autosize=1;align=left;verticalAlign=top;spacingTop=-4;" parent="1" vertex="1">
          <mxGeometry x="1310" y="588.5" width="130" height="20" as="geometry"/>
        </mxCell>
        <mxCell id="xB0mq0CovWPzEumE7J6I-272" value="gray_leve=1 到时发表" style="text;html=1;resizable=0;points=[];autosize=1;align=left;verticalAlign=top;spacingTop=-4;" parent="1" vertex="1">
          <mxGeometry x="1299" y="1044" width="127" height="14" as="geometry"/>
        </mxCell>
        <mxCell id="xB0mq0CovWPzEumE7J6I-273" value="gray_level=2 发文" style="text;html=1;resizable=0;points=[];autosize=1;align=left;verticalAlign=top;spacingTop=-4;" parent="1" vertex="1">
          <mxGeometry x="2105" y="230" width="110" height="20" as="geometry"/>
        </mxCell>
        <mxCell id="xB0mq0CovWPzEumE7J6I-274" value="gray_leve=2 审核结果" style="text;html=1;resizable=0;points=[];autosize=1;align=left;verticalAlign=top;spacingTop=-4;" parent="1" vertex="1">
          <mxGeometry x="2137.5" y="620" width="130" height="20" as="geometry"/>
        </mxCell>
        <mxCell id="xB0mq0CovWPzEumE7J6I-275" value="gray_leve=2 到时发表" style="text;html=1;resizable=0;points=[];autosize=1;align=left;verticalAlign=top;spacingTop=-4;" parent="1" vertex="1">
          <mxGeometry x="2450.5" y="979" width="130" height="20" as="geometry"/>
        </mxCell>
        <mxCell id="xB0mq0CovWPzEumE7J6I-281" style="edgeStyle=orthogonalEdgeStyle;rounded=0;orthogonalLoop=1;jettySize=auto;html=1;entryX=1;entryY=0.5;entryDx=0;entryDy=0;strokeColor=#9AC7BF;exitX=0.5;exitY=1;exitDx=0;exitDy=0;" parent="1" source="xB0mq0CovWPzEumE7J6I-279" target="xB0mq0CovWPzEumE7J6I-199" edge="1">
          <mxGeometry relative="1" as="geometry"/>
        </mxCell>
        <mxCell id="xB0mq0CovWPzEumE7J6I-279" value="pgc_exist" style="rhombus;whiteSpace=wrap;html=1;strokeColor=#000000;fillColor=none;" parent="1" vertex="1">
          <mxGeometry x="2760" y="662" width="120" height="75" as="geometry"/>
        </mxCell>
        <mxCell id="xB0mq0CovWPzEumE7J6I-282" value="是" style="text;html=1;resizable=0;points=[];autosize=1;align=left;verticalAlign=top;spacingTop=-4;" parent="1" vertex="1">
          <mxGeometry x="2820" y="740" width="30" height="20" as="geometry"/>
        </mxCell>
        <mxCell id="xB0mq0CovWPzEumE7J6I-283" value="审核结果&lt;br&gt;pgc_status=3/0" style="text;html=1;resizable=0;points=[];autosize=1;align=left;verticalAlign=top;spacingTop=-4;fillColor=#9AC7BF;" parent="1" vertex="1">
          <mxGeometry x="2820" y="800" width="100" height="30" as="geometry"/>
        </mxCell>
        <mxCell id="xB0mq0CovWPzEumE7J6I-285" value="index_status=true_status" style="text;html=1;resizable=0;points=[];autosize=1;align=left;verticalAlign=top;spacingTop=-4;strokeColor=#9AC7BF;fillColor=#9AC7BF;" parent="1" vertex="1">
          <mxGeometry x="2821" y="847" width="150" height="20" as="geometry"/>
        </mxCell>
        <mxCell id="xB0mq0CovWPzEumE7J6I-286" value="审核结果&lt;br&gt;item_status=true_is" style="text;html=1;resizable=0;points=[];autosize=1;align=left;verticalAlign=top;spacingTop=-4;fillColor=#9AC7BF;strokeColor=none;" parent="1" vertex="1">
          <mxGeometry x="2660" y="729" width="120" height="30" as="geometry"/>
        </mxCell>
        <mxCell id="xB0mq0CovWPzEumE7J6I-287" value="vl=true_vl" style="text;html=1;resizable=0;points=[];autosize=1;align=left;verticalAlign=top;spacingTop=-4;fillColor=#9AC7BF;strokeColor=none;" parent="1" vertex="1">
          <mxGeometry x="2660" y="768" width="70" height="20" as="geometry"/>
        </mxCell>
      </root>
    </mxGraphModel>
  </diagram>
</mxfile>
